<?xml version="1.0" standalone="no"?>
<!DOCTYPE svg PUBLIC "-//W3C//DTD SVG 20010904//EN"
 "http://www.w3.org/TR/2001/REC-SVG-20010904/DTD/svg10.dtd">
<svg version="1.0" xmlns="http://www.w3.org/2000/svg"
 width="260.000000pt" height="260.000000pt" viewBox="0 0 260.000000 260.000000"
 preserveAspectRatio="xMidYMid meet">
<metadata>
Created by potrace 1.14, written by Peter Selinger 2001-2017
</metadata>
<g transform="translate(0.000000,260.000000) scale(0.100000,-0.100000)"
fill="#000000" stroke="none">
<path d="M1445 2473 c-228 -47 -361 -169 -397 -363 -33 -174 70 -383 230 -468
106 -57 256 -76 453 -57 60 5 97 4 125 -5 47 -15 114 -56 114 -71 0 -5 -5 -7
-12 -3 -20 13 -192 19 -210 8 -5 -3 -21 -8 -36 -10 -15 -3 -34 -11 -42 -18 -8
-8 -20 -11 -27 -9 -6 2 -14 -5 -18 -16 -3 -10 -21 -31 -40 -46 l-35 -26 0 25
c0 14 8 30 18 36 15 10 15 10 -3 8 -11 -2 -20 3 -19 10 3 38 5 43 14 37 6 -3
14 5 19 18 6 14 16 27 23 30 7 3 2 6 -12 6 -14 1 -33 -7 -42 -16 -9 -10 -28
-29 -42 -42 -14 -13 -26 -30 -26 -38 0 -8 -4 -12 -8 -9 -14 8 -7 -31 9 -50 12
-16 12 -17 -3 -11 -30 11 -20 -10 20 -42 34 -29 38 -30 49 -14 7 9 15 14 18
11 3 -3 -1 -13 -10 -22 -18 -17 -34 -13 -70 21 -136 124 -303 268 -356 306
-241 171 -483 179 -628 21 -131 -143 -157 -326 -70 -495 46 -91 158 -169 269
-188 73 -12 90 -11 242 14 92 16 113 16 154 5 62 -18 109 -66 129 -132 19 -66
19 -84 -5 -136 -15 -33 -29 -47 -62 -62 -65 -30 -124 -26 -216 15 -167 73
-256 70 -342 -13 -74 -72 -85 -156 -33 -257 58 -111 63 -126 63 -165 0 -69
-48 -139 -139 -202 -37 -26 -16 -35 27 -13 54 29 131 104 149 145 24 56 13
151 -26 229 -43 85 -48 128 -18 172 52 77 134 78 279 3 91 -47 95 -48 183 -49
83 0 95 3 145 31 61 35 113 101 131 167 17 64 7 174 -23 239 -68 147 -201 215
-388 197 -112 -11 -213 -8 -250 7 -19 8 -24 11 -10 8 47 -12 175 -12 218 -1
54 14 136 76 140 105 2 12 10 22 18 22 21 0 17 43 -7 74 -12 15 -30 26 -44 26
-13 0 -28 8 -34 18 -5 9 -12 16 -15 15 -16 -7 -38 -1 -54 15 -10 10 -32 24
-50 31 -18 7 -32 20 -32 28 0 9 -9 14 -22 13 -13 -1 -25 -1 -28 0 -21 9 -70 6
-70 -5 0 -8 -8 -11 -19 -8 -10 3 -22 0 -25 -6 -9 -13 -26 -15 -26 -2 0 5 21
19 46 31 33 17 57 21 87 17 59 -7 105 -26 88 -36 -9 -6 -7 -10 8 -14 12 -3 19
-1 16 3 -3 4 4 6 15 3 11 -3 23 -10 27 -16 4 -6 1 -7 -7 -2 -9 5 -11 4 -6 -4
4 -6 12 -9 17 -5 16 9 108 -64 239 -191 260 -252 373 -335 507 -369 163 -42
331 3 448 119 57 58 108 151 109 200 1 18 4 31 9 28 12 -7 7 169 -7 222 -44
167 -180 287 -361 319 -74 13 -81 13 -265 1 -141 -10 -209 6 -271 62 -58 52
-72 86 -73 170 0 58 4 78 20 100 52 70 160 113 282 113 51 0 84 -8 154 -36 87
-35 93 -36 204 -32 102 3 116 5 136 26 12 12 17 22 10 22 -6 0 -12 5 -12 11 0
8 4 8 13 2 6 -6 29 -13 51 -16 21 -3 56 -15 77 -27 53 -27 60 -25 20 4 l-33
25 39 20 c45 24 29 28 -24 6 -46 -19 -99 -11 -115 19 -16 31 -105 110 -168
148 l-54 33 -201 1 c-110 1 -209 -1 -220 -3z m-5 -33 c8 -5 11 -10 5 -10 -5 0
-17 5 -25 10 -8 5 -10 10 -5 10 6 0 17 -5 25 -10z m185 0 c3 -5 1 -10 -4 -10
-6 0 -11 5 -11 10 0 6 2 10 4 10 3 0 8 -4 11 -10z m87 -8 c-3 -9 -8 -10 -15
-3 -7 7 -16 7 -29 0 -10 -5 -18 -6 -18 -1 0 14 8 18 38 17 20 0 28 -4 24 -13z
m-357 -20 c-3 -3 -11 0 -18 7 -9 10 -8 11 6 5 10 -3 15 -9 12 -12z m405 8 c0
-5 -2 -10 -4 -10 -3 0 -8 5 -11 10 -3 6 -1 10 4 10 6 0 11 -4 11 -10z m64 -12
c10 -10 12 -19 6 -23 -5 -3 -10 -2 -10 3 0 6 -11 13 -25 16 -14 4 -25 11 -25
16 0 15 35 7 54 -12z m-504 -8 c0 -5 -5 -10 -11 -10 -5 0 -7 5 -4 10 3 6 8 10
11 10 2 0 4 -4 4 -10z m-110 -74 c0 -3 -4 -8 -10 -11 -5 -3 -10 -1 -10 4 0 6
5 11 10 11 6 0 10 -2 10 -4z m60 -56 c0 -5 -5 -10 -11 -10 -5 0 -7 5 -4 10 3
6 8 10 11 10 2 0 4 -4 4 -10z m-30 -30 c0 -5 -5 -10 -11 -10 -5 0 -7 5 -4 10
3 6 8 10 11 10 2 0 4 -4 4 -10z m1 -427 c13 -16 12 -17 -3 -4 -10 7 -18 15
-18 17 0 8 8 3 21 -13z m-461 -63 c0 -5 -2 -10 -4 -10 -3 0 -8 5 -11 10 -3 6
-1 10 4 10 6 0 11 -4 11 -10z m-35 -10 c3 -6 -1 -7 -9 -4 -18 7 -21 14 -7 14
6 0 13 -4 16 -10z m995 -10 c0 -5 -5 -10 -11 -10 -5 0 -7 5 -4 10 3 6 8 10 11
10 2 0 4 -4 4 -10z m-1009 -27 c13 -16 12 -17 -3 -4 -17 13 -22 21 -14 21 2 0
10 -8 17 -17z m1199 7 c0 -5 -2 -10 -4 -10 -3 0 -8 5 -11 10 -3 6 -1 10 4 10
6 0 11 -4 11 -10z m-210 -4 c0 -3 -4 -8 -10 -11 -5 -3 -10 -1 -10 4 0 6 5 11
10 11 6 0 10 -2 10 -4z m-95 -16 c3 -5 1 -10 -4 -10 -6 0 -11 5 -11 10 0 6 2
10 4 10 3 0 8 -4 11 -10z m275 0 c0 -5 -2 -10 -4 -10 -3 0 -8 5 -11 10 -3 6
-1 10 4 10 6 0 11 -4 11 -10z m-115 -10 c3 -5 1 -10 -4 -10 -6 0 -11 5 -11 10
0 6 2 10 4 10 3 0 8 -4 11 -10z m270 -40 c3 -5 1 -10 -4 -10 -6 0 -11 5 -11
10 0 6 2 10 4 10 3 0 8 -4 11 -10z m35 0 c0 -5 -2 -10 -4 -10 -3 0 -8 5 -11
10 -3 6 -1 10 4 10 6 0 11 -4 11 -10z m-1045 -20 c3 -5 1 -10 -4 -10 -6 0 -11
5 -11 10 0 6 2 10 4 10 3 0 8 -4 11 -10z m1043 -25 c-3 -3 -9 2 -12 12 -6 14
-5 15 5 6 7 -7 10 -15 7 -18z m37 5 c3 -5 1 -10 -4 -10 -6 0 -11 5 -11 10 0 6
2 10 4 10 3 0 8 -4 11 -10z m-5 -41 c0 -6 -4 -7 -10 -4 -5 3 -10 11 -10 16 0
6 5 7 10 4 6 -3 10 -11 10 -16z m-995 -29 c3 -5 1 -10 -4 -10 -6 0 -11 5 -11
10 0 6 2 10 4 10 3 0 8 -4 11 -10z m35 0 c0 -5 -2 -10 -4 -10 -3 0 -8 5 -11
10 -3 6 -1 10 4 10 6 0 11 -4 11 -10z m950 0 c0 -5 -2 -10 -4 -10 -3 0 -8 5
-11 10 -3 6 -1 10 4 10 6 0 11 -4 11 -10z m-980 -40 c0 -5 -2 -10 -4 -10 -3 0
-8 5 -11 10 -3 6 -1 10 4 10 6 0 11 -4 11 -10z m995 0 c3 -5 1 -10 -4 -10 -6
0 -11 5 -11 10 0 6 2 10 4 10 3 0 8 -4 11 -10z m-385 -5 c0 -11 -56 -55 -71
-55 -9 0 -22 -7 -29 -15 -20 -25 -29 -17 -17 15 6 17 16 29 22 27 5 -2 23 5
40 15 28 17 55 24 55 13z m420 -16 c0 -6 -4 -7 -10 -4 -5 3 -10 11 -10 16 0 6
5 7 10 4 6 -3 10 -11 10 -16z m-960 -10 c0 -6 -4 -7 -10 -4 -5 3 -10 11 -10
16 0 6 5 7 10 4 6 -3 10 -11 10 -16z m30 11 c0 -5 -2 -10 -4 -10 -3 0 -8 5
-11 10 -3 6 -1 10 4 10 6 0 11 -4 11 -10z m-65 -10 c3 -5 1 -10 -4 -10 -6 0
-11 5 -11 10 0 6 2 10 4 10 3 0 8 -4 11 -10z m-412 -10 c-28 -11 -63 -66 -63
-98 0 -13 7 -37 16 -53 15 -30 15 -30 -7 -19 -12 7 -24 21 -26 31 -3 10 -11
19 -18 19 -18 0 -26 26 -16 53 15 38 69 75 111 75 25 1 25 1 3 -8z m512 -10
c3 -5 1 -10 -4 -10 -6 0 -11 5 -11 10 0 6 2 10 4 10 3 0 8 -4 11 -10z m-362
-35 c41 -40 45 -50 21 -59 -26 -10 -32 -7 -39 22 -3 15 -16 37 -27 50 -37 38
4 27 45 -13z m1046 -27 c17 -30 9 -60 -14 -52 -9 4 -23 21 -32 38 -8 17 -25
41 -36 54 l-22 23 45 -19 c25 -10 51 -30 59 -44z m216 52 c3 -5 1 -10 -4 -10
-6 0 -11 5 -11 10 0 6 2 10 4 10 3 0 8 -4 11 -10z m-442 -32 c-31 -34 -34 -85
-7 -112 13 -14 14 -16 0 -16 -8 0 -17 4 -21 9 -3 5 -19 13 -36 16 -21 5 -27
10 -19 15 7 4 10 14 7 21 -6 17 61 89 82 89 11 0 9 -5 -6 -22z m464 0 c-3 -8
-6 -5 -6 6 -1 11 2 17 5 13 3 -3 4 -12 1 -19z m-887 2 c0 -5 -2 -10 -4 -10 -3
0 -8 5 -11 10 -3 6 -1 10 4 10 6 0 11 -4 11 -10z m-475 -20 c3 -5 2 -10 -4
-10 -5 0 -13 5 -16 10 -3 6 -2 10 4 10 5 0 13 -4 16 -10z m475 -10 c0 -5 -2
-10 -4 -10 -3 0 -8 5 -11 10 -3 6 -1 10 4 10 6 0 11 -4 11 -10z m540 -12 c0
-6 -6 -5 -15 2 -8 7 -15 14 -15 16 0 2 7 1 15 -2 8 -4 15 -11 15 -16z m-770 8
c0 -3 -4 -8 -10 -11 -5 -3 -10 -1 -10 4 0 6 5 11 10 11 6 0 10 -2 10 -4z m200
-6 c0 -5 -2 -10 -4 -10 -3 0 -8 5 -11 10 -3 6 -1 10 4 10 6 0 11 -4 11 -10z
m100 0 c0 -5 -2 -10 -4 -10 -3 0 -8 5 -11 10 -3 6 -1 10 4 10 6 0 11 -4 11
-10z m767 -12 c-3 -8 -6 -5 -6 6 -1 11 2 17 5 13 3 -3 4 -12 1 -19z m-1173
-23 c-4 -8 -11 -15 -16 -15 -6 0 -5 6 2 15 7 8 14 15 16 15 2 0 1 -7 -2 -15z
m1206 5 c0 -5 -5 -10 -11 -10 -5 0 -7 5 -4 10 3 6 8 10 11 10 2 0 4 -4 4 -10z
m-830 -10 c0 -5 -2 -10 -4 -10 -3 0 -8 5 -11 10 -3 6 -1 10 4 10 6 0 11 -4 11
-10z m-424 -9 c-3 -5 -15 -11 -26 -14 -17 -4 -19 -3 -9 9 12 15 44 20 35 5z
m1224 -1 c0 -5 -5 -10 -11 -10 -5 0 -7 5 -4 10 3 6 8 10 11 10 2 0 4 -4 4 -10z
m-730 -21 c0 -6 -4 -7 -10 -4 -5 3 -10 11 -10 16 0 6 5 7 10 4 6 -3 10 -11 10
-16z m750 -9 c0 -5 -5 -10 -11 -10 -5 0 -7 5 -4 10 3 6 8 10 11 10 2 0 4 -4 4
-10z m-30 -14 c0 -3 -4 -8 -10 -11 -5 -3 -10 -1 -10 4 0 6 5 11 10 11 6 0 10
-2 10 -4z m-655 -16 c3 -5 1 -10 -4 -10 -6 0 -11 5 -11 10 0 6 2 10 4 10 3 0
8 -4 11 -10z m692 -12 c-3 -8 -6 -5 -6 6 -1 11 2 17 5 13 3 -3 4 -12 1 -19z
m-757 -18 c0 -5 -2 -10 -4 -10 -3 0 -8 5 -11 10 -3 6 -1 10 4 10 6 0 11 -4 11
-10z m100 0 c0 -5 -2 -10 -4 -10 -3 0 -8 5 -11 10 -3 6 -1 10 4 10 6 0 11 -4
11 -10z m600 0 c0 -5 -5 -10 -11 -10 -5 0 -7 5 -4 10 3 6 8 10 11 10 2 0 4 -4
4 -10z m-630 -10 c0 -5 -2 -10 -4 -10 -3 0 -8 5 -11 10 -3 6 -1 10 4 10 6 0
11 -4 11 -10z m632 -32 c-7 -7 -12 -8 -12 -2 0 14 12 26 19 19 2 -3 -1 -11 -7
-17z m10 -30 c-7 -7 -12 -8 -12 -2 0 14 12 26 19 19 2 -3 -1 -11 -7 -17z
m-607 2 c3 -5 1 -10 -4 -10 -6 0 -11 5 -11 10 0 6 2 10 4 10 3 0 8 -4 11 -10z
m545 6 c0 -3 -4 -8 -10 -11 -5 -3 -10 -1 -10 4 0 6 5 11 10 11 6 0 10 -2 10
-4z m22 -18 c-7 -7 -12 -8 -12 -2 0 14 12 26 19 19 2 -3 -1 -11 -7 -17z m-497
-8 c3 -5 1 -10 -4 -10 -6 0 -11 5 -11 10 0 6 2 10 4 10 3 0 8 -4 11 -10z m-30
-10 c3 -5 1 -10 -4 -10 -6 0 -11 5 -11 10 0 6 2 10 4 10 3 0 8 -4 11 -10z
m465 0 c0 -5 -5 -10 -11 -10 -5 0 -7 5 -4 10 3 6 8 10 11 10 2 0 4 -4 4 -10z
m35 -10 c-3 -5 -11 -10 -16 -10 -6 0 -7 5 -4 10 3 6 11 10 16 10 6 0 7 -4 4
-10z m-425 -10 c0 -5 -2 -10 -4 -10 -3 0 -8 5 -11 10 -3 6 -1 10 4 10 6 0 11
-4 11 -10z m65 0 c3 -5 1 -10 -4 -10 -6 0 -11 5 -11 10 0 6 2 10 4 10 3 0 8
-4 11 -10z m-25 -20 c0 -5 -2 -10 -4 -10 -3 0 -8 5 -11 10 -3 6 -1 10 4 10 6
0 11 -4 11 -10z m155 0 c3 -5 1 -10 -4 -10 -6 0 -11 5 -11 10 0 6 2 10 4 10 3
0 8 -4 11 -10z m190 0 c-3 -5 -11 -10 -16 -10 -6 0 -7 5 -4 10 3 6 11 10 16
10 6 0 7 -4 4 -10z m-380 -10 c3 -5 1 -10 -4 -10 -6 0 -11 5 -11 10 0 6 2 10
4 10 3 0 8 -4 11 -10z m265 -4 c0 -3 -4 -8 -10 -11 -5 -3 -10 -1 -10 4 0 6 5
11 10 11 6 0 10 -2 10 -4z m75 -6 c-3 -5 -11 -10 -16 -10 -6 0 -7 5 -4 10 3 6
11 10 16 10 6 0 7 -4 4 -10z m-290 -10 c3 -5 1 -10 -4 -10 -6 0 -11 5 -11 10
0 6 2 10 4 10 3 0 8 -4 11 -10z m125 6 c0 -3 -4 -8 -10 -11 -5 -3 -10 -1 -10
4 0 6 5 11 10 11 6 0 10 -2 10 -4z m120 -10 c0 -3 -4 -8 -10 -11 -5 -3 -10 -1
-10 4 0 6 5 11 10 11 6 0 10 -2 10 -4z m-50 -16 c0 -5 -4 -10 -10 -10 -5 0
-10 5 -10 10 0 6 5 10 10 10 6 0 10 -4 10 -10z m-75 -30 c3 -5 1 -10 -4 -10
-6 0 -11 5 -11 10 0 6 2 10 4 10 3 0 8 -4 11 -10z m-498 -102 c-3 -8 -6 -5 -6
6 -1 11 2 17 5 13 3 -3 4 -12 1 -19z"/>
</g>
</svg>
